
        <svg xmlns="http://www.w3.org/2000/svg" xmlns:xlink="http://www.w3.org/1999/xlink" version="1.1" width="3227.272727272727" 
        height="889.5802482042006" viewBox="0 0 3227.272727272727 889.5802482042006">
			
			<g transform="scale(11.363636363636363) translate(10, 10)">
				<defs id="SvgjsDefs1045"><linearGradient id="SvgjsLinearGradient1050"><stop id="SvgjsStop1051" stop-color="#905e26" offset="0"></stop><stop id="SvgjsStop1052" stop-color="#f5ec9b" offset="0.5"></stop><stop id="SvgjsStop1053" stop-color="#905e26" offset="1"></stop></linearGradient><linearGradient id="SvgjsLinearGradient1054"><stop id="SvgjsStop1055" stop-color="#905e26" offset="0"></stop><stop id="SvgjsStop1056" stop-color="#f5ec9b" offset="0.5"></stop><stop id="SvgjsStop1057" stop-color="#905e26" offset="1"></stop></linearGradient></defs><g id="SvgjsG1046" featureKey="nameFeature-0" transform="matrix(1.3417775891449013,0,0,1.3417775891449013,57,-16.04765873773895)" fill="url(#SvgjsLinearGradient1050)"><path d="M21.24 25.68 l0 -13.72 l9.36 0 l0 28.04 l-9.36 0 l-15 -17.36 l0 -4.8 l16.44 19.04 l4.8 0 l0 -21.8 l-3.12 0 l0 19 l-16.44 -19 l-4.8 0 l0 21.8 l3.12 0 l0 -9.44 l3.12 3.6 l0 8.96 l-9.36 0 l0 -28.04 l9.36 0 z M59.936 11.96 l11.32 0 l-9.68 14 l9.68 14.04 l-11.32 0 l-4.04 -5.84 l-4.04 5.84 l-11.32 0 l13.48 -19.52 l-3.72 -5.4 l-3.8 0 l3.72 5.4 l-1.88 2.72 l-7.8 -11.24 l11.36 0 l5.92 8.52 l-11.32 16.4 l3.72 0 l5.68 -8.2 l5.68 8.2 l3.76 0 l-7.56 -10.92 l7.52 -10.88 l-3.8 0 l-1.8 2.64 l-1.92 -2.76 z M81.19200000000001 21.32 l0 -9.36 l30.6 0 l0 9.36 l-7.52 0 l0 -3.12 l4.4 0 l0 -3.12 l-24.36 0 l0 3.12 l10.64 0 l-0.04 18.68 l3.12 0 l0 -18.68 l3.12 0 l0 21.8 l-9.36 0 l0 -18.68 l-10.6 0 z"></path></g><g id="SvgjsG1047" featureKey="sloganFeature-0" transform="matrix(0.47726485797722173,0,0,0.47726485797722173,0,48.441860752675595)" fill="url(#SvgjsLinearGradient1054)"><path d="M10.62 12.84 l0 -6.86 l4.68 0 l0 14.02 l-4.68 0 l-7.5 -8.68 l0 -2.4 l8.22 9.52 l2.4 0 l0 -10.9 l-1.56 0 l0 9.5 l-8.22 -9.5 l-2.4 0 l0 10.9 l1.56 0 l0 -4.72 l1.56 1.8 l0 4.48 l-4.68 0 l0 -14.02 l4.68 0 z M34.412 5.359999999999999 c4.2 0 7.62 3.42 7.62 7.64 s-3.42 7.62 -7.62 7.62 c-4.22 0 -7.64 -3.4 -7.64 -7.62 s3.42 -7.64 7.64 -7.64 z M34.412 19.08 c3.36 0 6.08 -2.72 6.08 -6.08 s-2.72 -6.1 -6.08 -6.1 c-3.38 0 -6.1 2.74 -6.1 6.1 s2.72 6.08 6.1 6.08 z M34.412 8.44 c2.5 0 4.54 2.06 4.54 4.56 s-2.04 4.54 -4.54 4.54 s-4.56 -2.04 -4.56 -4.54 s2.06 -4.56 4.56 -4.56 z M34.412 16 c1.66 0 3 -1.34 3 -3 c0 -1.68 -1.34 -3.02 -3 -3.02 c-1.68 0 -3.02 1.34 -3.02 3.02 c0 1.66 1.34 3 3.02 3 z M62.764 5.98 l5.4 0 c-0.3 0.5 -2.32 4.02 -4.26 7.4 c-1.14 1.98 -2.4 4.2 -3.82 6.62 l-1.8 0 c0.16 -0.26 1.94 -3.4 3.7 -6.44 c1.02 -1.78 2.18 -3.8 3.48 -6.02 l-1.8 0 c-2.52 4.32 -3.98 6.9 -6.28 10.9 c-0.14 -0.24 -7.24 -12.44 -7.22 -12.46 l5.4 0 l2.72 4.68 l-0.9 1.56 l-2.72 -4.68 l-1.8 0 c0.4 0.64 4.14 7.16 4.52 7.78 l3.92 -6.8 z M82.43599999999999 15.32 l0.9 -1.56 l2.72 4.68 l1.8 0 c-0.4 -0.64 -4.2 -7.14 -4.52 -7.78 l-3.92 6.8 l-1.46 2.54 l-5.4 0 c0.3 -0.5 2.32 -4.02 4.26 -7.4 c1.14 -1.98 2.4 -4.2 3.82 -6.62 l1.8 0 l-3.72 6.44 l-3.46 6.02 l1.8 0 c2.46 -4.34 4 -6.9 6.28 -10.9 c0.14 0.24 7.18 12.44 7.22 12.46 l-5.4 0 z M130.39999999999998 5.98 l5.66 0 l-4.84 7 l4.84 7.02 l-5.66 0 l-2.02 -2.92 l-2.02 2.92 l-5.66 0 l6.74 -9.76 l-1.86 -2.7 l-1.9 0 l1.86 2.7 l-0.94 1.36 l-3.9 -5.62 l5.68 0 l2.96 4.26 l-5.66 8.2 l1.86 0 l2.84 -4.1 l2.84 4.1 l1.88 0 l-3.78 -5.46 l3.76 -5.44 l-1.9 0 l-0.9 1.32 l-0.96 -1.38 z M147.53199999999998 5.98 l11.42 0 c2.14 0 3.88 1.74 3.88 3.9 c0 2.14 -1.74 3.9 -3.88 3.9 l-9.86 -0.02 l0 4.68 l1.56 0 l0 -3.12 l1.54 0 l0 4.68 l-4.66 0 l0 -7.8 l11.42 0.02 c1.28 0 2.32 -1.06 2.32 -2.34 c0 -1.3 -1.04 -2.34 -2.32 -2.34 l-9.86 0 l0 1.56 l9.86 0 c0.4 0.02 0.74 0.36 0.74 0.78 s-0.32 0.76 -0.78 0.78 l-0.02 0 l-11.36 0 l0 -4.68 z M188.884 20 l-5.4 0 l-1.82 -3.14 l-3.5 0 l0 3.14 l-4.66 0 l0 -7.8 l11.44 0.02 c1.3 0 2.34 -1.06 2.34 -2.34 c0 -1.3 -1.04 -2.34 -2.34 -2.34 l-9.88 0 l0 1.56 l9.88 0 c0.42 0.02 0.74 0.36 0.74 0.78 s-0.32 0.76 -0.74 0.78 l-0.02 0 l-0.02 0 l-11.4 0 l0 -4.68 l11.44 0 c2.16 0 3.9 1.74 3.9 3.9 c0 2.14 -1.74 3.9 -3.9 3.9 l-9.88 -0.02 l0 4.68 l1.56 0 l0 -3.14 l5.94 0 c0.64 1.16 1.72 2.94 1.82 3.14 l1.8 0 c-0.16 -0.22 -1.08 -1.86 -1.82 -3.14 l1.8 0 c0.66 1.14 1.32 2.32 1.86 3.2 z M214.836 5.98 l0 4.68 l-10.62 0 l0 1.56 l7.88 0 l0 1.56 l-9.44 0 l0 -4.68 l10.62 0 l0 -1.56 l-12.18 0 l0 10.9 l12.18 0 l0 -1.56 l-10.62 0 l0 -1.56 l12.18 0 l0 4.68 l-15.3 0 l0 -14.02 l15.3 0 z M238.048 13.780000000000001 c-7.94 0 -8.06 -0.02 -8.16 -0.02 l-0.04 0 c-2 -0.16 -3.54 -1.86 -3.54 -3.88 c0 -2.16 1.74 -3.9 3.9 -3.9 l8.4 0 c1.68 0 3.04 1.36 3.04 3.06 l0 1.62 l-11.38 0 l-0.02 0 l-0.02 0 c-0.46 -0.02 -0.76 -0.36 -0.76 -0.78 s0.32 -0.76 0.74 -0.78 l9.88 0 l0 -0.04 c0 -0.86 -0.66 -1.52 -1.52 -1.52 l-8.36 0 c-1.28 0 -2.34 1.04 -2.34 2.34 c0 1.2 0.9 2.16 2.04 2.32 c7.98 0 8.06 0.02 8.2 0.02 c2 0.16 3.54 1.88 3.54 3.88 c0 2.16 -1.74 3.9 -3.88 3.9 l-8.42 0 c-1.68 0 -3.04 -1.36 -3.04 -3.04 l0 -1.64 l11.46 0 c0.98 0.06 0.98 1.5 0 1.56 l-9.9 0 l0 0.04 c0 0.86 0.66 1.52 1.52 1.52 l8.38 0 c1.26 0 2.34 -1 2.34 -2.34 c0 -1.2 -0.9 -2.16 -2.06 -2.32 z M264.86 13.780000000000001 c-7.94 0 -8.06 -0.02 -8.16 -0.02 l-0.04 0 c-2 -0.16 -3.54 -1.86 -3.54 -3.88 c0 -2.16 1.74 -3.9 3.9 -3.9 l8.4 0 c1.68 0 3.04 1.36 3.04 3.06 l0 1.62 l-11.38 0 l-0.02 0 l-0.02 0 c-0.46 -0.02 -0.76 -0.36 -0.76 -0.78 s0.32 -0.76 0.74 -0.78 l9.88 0 l0 -0.04 c0 -0.86 -0.66 -1.52 -1.52 -1.52 l-8.36 0 c-1.28 0 -2.34 1.04 -2.34 2.34 c0 1.2 0.9 2.16 2.04 2.32 c7.98 0 8.06 0.02 8.2 0.02 c2 0.16 3.54 1.88 3.54 3.88 c0 2.16 -1.74 3.9 -3.88 3.9 l-8.42 0 c-1.68 0 -3.04 -1.36 -3.04 -3.04 l0 -1.64 l11.46 0 c0.98 0.06 0.98 1.5 0 1.56 l-9.9 0 l0 0.04 c0 0.86 0.66 1.52 1.52 1.52 l8.38 0 c1.26 0 2.34 -1 2.34 -2.34 c0 -1.2 -0.9 -2.16 -2.06 -2.32 z M298.60400000000004 10.66 l0 -4.68 l15.3 0 l0 4.68 l-3.76 0 l0 -1.56 l2.2 0 l0 -1.56 l-12.18 0 l0 1.56 l5.32 0 l-0.02 9.34 l1.56 0 l0 -9.34 l1.56 0 l0 10.9 l-4.68 0 l0 -9.34 l-5.3 0 z M340.75600000000003 20 l-5.4 0 l-1.82 -3.14 l-3.5 0 l0 3.14 l-4.66 0 l0 -7.8 l11.44 0.02 c1.3 0 2.34 -1.06 2.34 -2.34 c0 -1.3 -1.04 -2.34 -2.34 -2.34 l-9.88 0 l0 1.56 l9.88 0 c0.42 0.02 0.74 0.36 0.74 0.78 s-0.32 0.76 -0.74 0.78 l-0.02 0 l-0.02 0 l-11.4 0 l0 -4.68 l11.44 0 c2.16 0 3.9 1.74 3.9 3.9 c0 2.14 -1.74 3.9 -3.9 3.9 l-9.88 -0.02 l0 4.68 l1.56 0 l0 -3.14 l5.94 0 c0.64 1.16 1.72 2.94 1.82 3.14 l1.8 0 c-0.16 -0.22 -1.08 -1.86 -1.82 -3.14 l1.8 0 c0.66 1.14 1.32 2.32 1.86 3.2 z M362.108 15.32 l0.9 -1.56 l2.72 4.68 l1.8 0 c-0.4 -0.64 -4.2 -7.14 -4.52 -7.78 l-3.92 6.8 l-1.46 2.54 l-5.4 0 c0.3 -0.5 2.32 -4.02 4.26 -7.4 c1.14 -1.98 2.4 -4.2 3.82 -6.62 l1.8 0 l-3.72 6.44 l-3.46 6.02 l1.8 0 c2.46 -4.34 4 -6.9 6.28 -10.9 c0.14 0.24 7.18 12.44 7.22 12.46 l-5.4 0 z M390.86 12.84 l0 -6.86 l4.68 0 l0 14.02 l-4.68 0 l-7.5 -8.68 l0 -2.4 l8.22 9.52 l2.4 0 l0 -10.9 l-1.56 0 l0 9.5 l-8.22 -9.5 l-2.4 0 l0 10.9 l1.56 0 l0 -4.72 l1.56 1.8 l0 4.48 l-4.68 0 l0 -14.02 l4.68 0 z M418.752 13.780000000000001 c-7.94 0 -8.06 -0.02 -8.16 -0.02 l-0.04 0 c-2 -0.16 -3.54 -1.86 -3.54 -3.88 c0 -2.16 1.74 -3.9 3.9 -3.9 l8.4 0 c1.68 0 3.04 1.36 3.04 3.06 l0 1.62 l-11.38 0 l-0.02 0 l-0.02 0 c-0.46 -0.02 -0.76 -0.36 -0.76 -0.78 s0.32 -0.76 0.74 -0.78 l9.88 0 l0 -0.04 c0 -0.86 -0.66 -1.52 -1.52 -1.52 l-8.36 0 c-1.28 0 -2.34 1.04 -2.34 2.34 c0 1.2 0.9 2.16 2.04 2.32 c7.98 0 8.06 0.02 8.2 0.02 c2 0.16 3.54 1.88 3.54 3.88 c0 2.16 -1.74 3.9 -3.88 3.9 l-8.42 0 c-1.68 0 -3.04 -1.36 -3.04 -3.04 l0 -1.64 l11.46 0 c0.98 0.06 0.98 1.5 0 1.56 l-9.9 0 l0 0.04 c0 0.86 0.66 1.52 1.52 1.52 l8.38 0 c1.26 0 2.34 -1 2.34 -2.34 c0 -1.2 -0.9 -2.16 -2.06 -2.32 z M433.824 5.98 l11.42 0 c2.14 0 3.88 1.74 3.88 3.9 c0 2.14 -1.74 3.9 -3.88 3.9 l-9.86 -0.02 l0 4.68 l1.56 0 l0 -3.12 l1.54 0 l0 4.68 l-4.66 0 l0 -7.8 l11.42 0.02 c1.28 0 2.32 -1.06 2.32 -2.34 c0 -1.3 -1.04 -2.34 -2.32 -2.34 l-9.86 0 l0 1.56 l9.86 0 c0.4 0.02 0.74 0.36 0.74 0.78 s-0.32 0.76 -0.78 0.78 l-0.02 0 l-11.36 0 l0 -4.68 z M466.39599999999996 5.359999999999999 c4.2 0 7.62 3.42 7.62 7.64 s-3.42 7.62 -7.62 7.62 c-4.22 0 -7.64 -3.4 -7.64 -7.62 s3.42 -7.64 7.64 -7.64 z M466.39599999999996 19.08 c3.36 0 6.08 -2.72 6.08 -6.08 s-2.72 -6.1 -6.08 -6.1 c-3.38 0 -6.1 2.74 -6.1 6.1 s2.72 6.08 6.1 6.08 z M466.39599999999996 8.44 c2.5 0 4.54 2.06 4.54 4.56 s-2.04 4.54 -4.54 4.54 s-4.56 -2.04 -4.56 -4.54 s2.06 -4.56 4.56 -4.56 z M466.39599999999996 16 c1.66 0 3 -1.34 3 -3 c0 -1.68 -1.34 -3.02 -3 -3.02 c-1.68 0 -3.02 1.34 -3.02 3.02 c0 1.66 1.34 3 3.02 3 z M499.60799999999995 20 l-5.4 0 l-1.82 -3.14 l-3.5 0 l0 3.14 l-4.66 0 l0 -7.8 l11.44 0.02 c1.3 0 2.34 -1.06 2.34 -2.34 c0 -1.3 -1.04 -2.34 -2.34 -2.34 l-9.88 0 l0 1.56 l9.88 0 c0.42 0.02 0.74 0.36 0.74 0.78 s-0.32 0.76 -0.74 0.78 l-0.02 0 l-0.02 0 l-11.4 0 l0 -4.68 l11.44 0 c2.16 0 3.9 1.74 3.9 3.9 c0 2.14 -1.74 3.9 -3.9 3.9 l-9.88 -0.02 l0 4.68 l1.56 0 l0 -3.14 l5.94 0 c0.64 1.16 1.72 2.94 1.82 3.14 l1.8 0 c-0.16 -0.22 -1.08 -1.86 -1.82 -3.14 l1.8 0 c0.66 1.14 1.32 2.32 1.86 3.2 z M511.0799999999999 10.66 l0 -4.68 l15.3 0 l0 4.68 l-3.76 0 l0 -1.56 l2.2 0 l0 -1.56 l-12.18 0 l0 1.56 l5.32 0 l-0.02 9.34 l1.56 0 l0 -9.34 l1.56 0 l0 10.9 l-4.68 0 l0 -9.34 l-5.3 0 z M553.1519999999999 5.98 l0 4.68 l-10.62 0 l0 1.56 l7.88 0 l0 1.56 l-9.44 0 l0 -4.68 l10.62 0 l0 -1.56 l-12.18 0 l0 10.9 l12.18 0 l0 -1.56 l-10.62 0 l0 -1.56 l12.18 0 l0 4.68 l-15.3 0 l0 -14.02 l15.3 0 z"></path></g>
			</g>
		</svg>
	